# xmcd
#
# Track frame offsets: 
#        150
#        15327
#        31283
#        50103
#        66041
#        81559
#        102189
#        113737
#        127885
#        144797
#        162633
#        186929
#
# Disc length: 2674 seconds
#
# Revision: 1
# Processed by: cddbd v1.5.2PL0 Copyright (c) Steve Scherf et al.
# Submitted via: ExactAudioCopyFreeDBPlugin 1.0
#
DISCID=9d0a700c
DTITLE=細野晴臣 - HoSoNoVa
DYEAR=2011
DGENRE=Blues
TTITLE0=ラモナ
TTITLE1=スマイル
TTITLE2=悲しみのラッキースター
TTITLE3=ローズマリー、ティートゥリー
TTITLE4=ただいま
TTITLE5=ロンサム・ロードムービー
TTITLE6=ウォーカーズ・ブルース
TTITLE7=バナナ追分
TTITLE8=レイジーボーン
TTITLE9=デザート・ブルース
TTITLE10=カモナ・ガール
TTITLE11=ラヴ・ミー
EXTD=
EXTT0=
EXTT1=
EXTT2=
EXTT3=
EXTT4=
EXTT5=
EXTT6=
EXTT7=
EXTT8=
EXTT9=
EXTT10=
EXTT11=
PLAYORDER=
